<svg width="36" height="18" viewBox="0 0 36 18" fill="none" xmlns="http://www.w3.org/2000/svg">
<path d="M2.25123 0H33.7488C34.9911 0 36 1.00566 36 2.25123V15.7488C36 16.9911 34.9943 18 33.7488 18H2.25123C1.00895 18 0 16.9943 0 15.7488V2.24795C0 1.00566 1.00895 0 2.25123 0Z" fill="#F5C518"/>
<path d="M4.49902 14.0596H7.31224V3.93396H4.49902V14.0596Z" fill="black"/>
<path d="M13.3136 3.93396L12.6826 8.66319L12.2916 6.08989C12.1765 5.26498 12.0681 4.54853 11.9662 3.93396H8.43652V14.0596H10.8225L10.8324 7.37489L11.8347 14.0596H13.5338L14.4869 7.227L14.4935 14.0596H16.8729V3.93396H13.3136Z" fill="black"/>
<path d="M18 14.0596V3.93396H22.3907C23.3832 3.93396 24.1884 4.73257 24.1884 5.7218V12.2717C24.1884 13.2577 23.3865 14.0596 22.3907 14.0596H18ZM21.2799 5.75795C21.1682 5.6988 20.9545 5.66922 20.6456 5.66922V12.3112C21.0564 12.3112 21.3062 12.2389 21.4015 12.0844C21.4968 11.9332 21.5461 11.5224 21.5461 10.8487V6.92136C21.5461 6.46454 21.5297 6.17205 21.4968 6.04059C21.4639 5.91242 21.3916 5.81711 21.2799 5.75795Z" fill="black"/>
<path d="M29.4896 6.47111H29.6704C30.6793 6.47111 31.4976 7.26315 31.4976 8.23595V12.2947C31.4976 13.2708 30.6793 14.0596 29.6704 14.0596H29.4896C28.8717 14.0596 28.3262 13.7638 27.9943 13.3103L27.8332 13.9281H25.3125V3.93396H28.0041V7.18428C28.3492 6.75375 28.8849 6.47111 29.4896 6.47111ZM28.9145 11.4074V9.00827C28.9145 8.61061 28.8882 8.35098 28.8356 8.23266C28.783 8.11435 28.5694 8.03548 28.4215 8.03548C28.2736 8.03548 28.0436 8.09792 28.0008 8.20309V9.00827V11.483V12.2619C28.0501 12.3769 28.2703 12.4426 28.4215 12.4426C28.5727 12.4426 28.7962 12.3802 28.8422 12.2619C28.8915 12.1469 28.9145 11.8609 28.9145 11.4074Z" fill="black"/>
</svg>
