<svg width="42" height="42" viewBox="0 0 42 42" fill="none" xmlns="http://www.w3.org/2000/svg">
<path d="M36.8902 15.0151V26.985C36.8902 28.945 35.8403 30.7651 34.1428 31.7626L23.7478 37.7651C22.0503 38.7451 19.9503 38.7451 18.2353 37.7651L7.84029 31.7626C6.14279 30.7826 5.09277 28.9625 5.09277 26.985V15.0151C5.09277 13.0551 6.14279 11.235 7.84029 10.2375L18.2353 4.235C19.9328 3.255 22.0328 3.255 23.7478 4.235L34.1428 10.2375C35.8403 11.235 36.8902 13.0376 36.8902 15.0151Z" fill="#E2FCFC"/>
<path d="M17.0625 21.0001V18.9001C17.0625 16.2051 18.97 15.1026 21.2975 16.4501L23.1175 17.5001L24.9375 18.55C27.265 19.8975 27.265 22.1026 24.9375 23.4501L23.1175 24.5001L21.2975 25.55C18.97 26.8975 17.0625 25.7951 17.0625 23.1001V21.0001Z" fill="black"/>
</svg>
